<svg width="24" height="24" viewBox="0 0 24 24" fill="none" xmlns="http://www.w3.org/2000/svg">
<g clip-path="url(#clip0_6_499)">
<path fill-rule="evenodd" clip-rule="evenodd" d="M3.09677 20.0062C1.10599 17.8243 0 14.9769 0 12.0185V5.06626C0 4.17874 0.700461 3.47612 1.58525 3.47612C1.62212 3.47612 1.65899 3.47612 1.65899 3.47612C1.65899 3.47612 1.65899 3.47612 1.69585 3.47612C3.13364 3.58706 4.57143 3.84592 5.97235 4.2527C7.37327 2.4037 9.29032 0.961479 11.4654 0.11094C11.4654 0.11094 11.4654 0.11094 11.5023 0.11094C11.6498 0.03698 11.8341 0 11.9816 0C12.1659 0 12.3134 0.03698 12.4977 0.0739599C12.4977 0.0739599 12.4977 0.0739599 12.5346 0.0739599C14.7097 0.924499 16.6267 2.36672 18.0645 4.2527C19.4654 3.8829 20.8664 3.62404 22.3041 3.47612C22.341 3.47612 22.3779 3.47612 22.4147 3.47612C23.2995 3.47612 24 4.17874 24 5.06626C24 5.06626 24 5.06626 24 5.10324V12.0185C24 17.0847 21.0507 21.3744 16.3318 23.1864C14.1935 24 11.7972 24.2219 9.54839 23.7781C7.07834 23.2604 4.90323 22.0031 3.20737 20.1541C3.13364 20.0801 3.13364 20.0431 3.09677 20.0062ZM20.8295 6.87827C14.1935 7.98767 8.03687 11.7966 6.15668 18.6009C8.70046 20.8937 12.2765 21.4484 15.447 20.1171C18.765 18.7119 20.8295 15.6425 20.8295 12.0185V6.87827ZM11.9816 6.61941C12.8664 6.13867 13.788 5.69491 14.7465 5.28814C13.9355 4.47458 13.0138 3.80894 11.9816 3.29122C10.9493 3.77196 10.0276 4.47458 9.21659 5.28814C9.58525 5.43606 9.99078 5.62095 10.3594 5.76888L10.5438 5.84283C11.0599 6.13867 11.5392 6.36055 11.9816 6.61941ZM3.17051 6.87827V11.9815C3.17051 13.1649 3.39171 14.3112 3.87097 15.3837C4.97696 12.7581 6.74654 10.4284 8.95853 8.65331C7.11521 7.83975 5.16129 7.24807 3.17051 6.87827Z" fill="#D6001D"/>
</g>
<defs>
<clipPath id="clip0_6_499">
<rect width="24" height="24" fill="white"/>
</clipPath>
</defs>
</svg>
