<svg width="243" height="20" viewBox="0 0 243 20" fill="none" xmlns="http://www.w3.org/2000/svg">
<g clip-path="url(#clip0_115_926)">
<path fill-rule="evenodd" clip-rule="evenodd" d="M0 19.6501V16.2099H1.79124V3.79009H0V0.349854H6.70271L11.8453 14.9854L16.9301 0.349854H23.6328V3.79009H21.7838V16.2682H23.6328V19.7085H16.4679V16.2682H18.3169V5.1895L13.2899 19.6501H10.4008L5.37373 5.1895V16.2682H7.22275V19.7085H0V19.6501ZM34.207 11.2536H38.3095L36.2293 5.42274L34.207 11.2536ZM26.4642 19.6501V16.2099H28.3132L33.4558 3.73178H31.6068V0.349854H37.6161L44.2032 16.2682H45.9945V19.7085H38.4828V16.2682H40.3319L39.6962 14.6939H32.9357L32.2424 16.2682H34.0914V19.7085H26.4642V19.6501ZM54.1418 16.2099H62.7513L58.4754 5.59767L54.1418 16.2099ZM59.92 0.349854L66.4493 16.2099H68.9917V19.6501H65.7559H51.1949H47.9591V16.2099H50.5015L55.6441 3.73178H53.8528V0.349854H59.92ZM78.6413 11.2536H82.7439L80.7215 5.42274L78.6413 11.2536ZM70.8985 19.6501V16.2099H72.7476L77.8902 3.73178H76.0411V0.349854H82.0505L88.6376 16.2682H90.4289V19.7085H82.9172V16.2682H84.7662L84.1306 14.6939H77.3123L76.619 16.2682H78.468V19.7085H70.8985V19.6501ZM93.318 19.6501V16.2099H95.167V3.79009H93.318V0.349854H100.021L105.163 14.9854L110.248 0.349854H116.951V3.79009H115.102V16.2682H116.951V19.7085H109.786V16.2682H111.635V5.1895L106.666 19.6501H103.777L98.8073 5.1895V16.2682H100.656V19.7085H93.318V19.6501ZM130.356 3.79009H128.507V0.349854H135.73V3.79009H133.881V16.2682H140.121V3.79009H138.272V0.349854H145.437V3.79009H143.646V16.2682H146.477V19.7085H143.299H139.197H128.507V16.2682H130.356V3.79009ZM156.011 16.2099H157.745C158.958 16.2099 159.883 16.035 160.461 15.6268C161.038 15.2187 161.327 14.6356 161.327 13.7609C161.327 12.8863 161.038 12.3032 160.461 11.895C159.883 11.4869 158.958 11.2536 157.745 11.2536H156.011V16.2099ZM156.011 7.7551H157.167C158.265 7.7551 159.016 7.58017 159.478 7.28863C159.941 6.99708 160.172 6.4723 160.172 5.77259C160.172 4.4898 159.247 3.79009 157.456 3.79009H156.011V7.7551ZM150.638 19.6501V16.2099H152.487V3.79009H150.638V0.349854H156.416C157.86 0.349854 158.958 0.408163 159.709 0.58309C160.461 0.699708 161.096 0.991254 161.674 1.39942C162.31 1.86589 162.83 2.44898 163.176 3.14869C163.523 3.8484 163.696 4.66472 163.696 5.53936C163.696 6.4723 163.523 7.17201 163.176 7.7551C162.83 8.33819 162.31 8.80466 161.559 9.21283C162.194 9.50437 162.714 9.73761 163.003 9.97085C163.35 10.2041 163.639 10.4956 163.928 10.9038C164.505 11.7201 164.794 12.7114 164.794 13.9942C164.794 14.9854 164.563 15.9184 164.101 16.793C163.639 17.6093 163.003 18.309 162.194 18.7755C161.038 19.4169 159.478 19.7668 157.456 19.7668H150.638V19.6501ZM168.55 19.6501V16.2099H170.341V3.79009H168.55V0.349854H180.627V5.59767H176.986V3.79009H173.924V8.33819H179.124V11.7784H173.924V16.2682H176.986V14.4023H180.627V19.6501H168.55ZM199.117 0.349854V5.59767H195.477V3.79009H193.685V16.2682H195.534V19.7085H188.369V16.2682H190.218V3.79009H188.427V5.59767H184.787V0.349854H199.117ZM212.06 0C213.389 0 214.66 0.291545 215.874 0.816326C217.087 1.34111 218.127 2.04082 218.994 2.91545C219.861 3.79009 220.554 4.83965 221.074 6.12245C221.594 7.34694 221.825 8.62974 221.825 9.97085C221.825 11.8367 221.363 13.5277 220.496 15.0437C219.629 16.5598 218.416 17.7843 216.914 18.6589C215.411 19.5335 213.736 20 211.887 20C210.5 20 209.171 19.7668 207.957 19.242C206.744 18.7172 205.646 18.0175 204.779 17.1429C203.913 16.2682 203.162 15.1603 202.642 13.9359C202.122 12.7114 201.833 11.3703 201.833 10.0292C201.833 8.62974 202.064 7.34694 202.642 6.06414C203.162 4.83965 203.855 3.79009 204.779 2.85714C205.704 1.98251 206.744 1.2828 208.015 0.758017C209.286 0.233236 210.615 0 212.06 0ZM211.829 3.44023C210.095 3.44023 208.593 4.08163 207.38 5.36443C206.166 6.64723 205.531 8.16327 205.531 9.97085C205.531 10.9038 205.704 11.7201 206.051 12.5364C206.397 13.3528 206.86 14.0525 207.437 14.6356C208.015 15.2187 208.709 15.6851 209.518 16.035C210.327 16.3848 211.193 16.5598 212.06 16.5598C213.851 16.5598 215.354 15.9184 216.567 14.6939C217.78 13.4694 218.358 11.895 218.358 10.0292C218.358 8.10496 217.723 6.58892 216.509 5.30612C215.238 4.08163 213.678 3.44023 211.829 3.44023ZM236.097 3.79009H235.462V0.349854H242.107V3.79009H240.258L234.826 9.85423L240.315 16.2682H242.164V19.7085H235.462V16.2682H236.097L231.186 10.5539V16.2682H233.035V19.7085H225.812V16.2682H227.661V3.79009H225.812V0.349854H233.035V3.79009H231.186V9.32945L236.097 3.79009Z" fill="black"/>
</g>
<defs>
<clipPath id="clip0_115_926">
<rect width="242.222" height="20" fill="white"/>
</clipPath>
</defs>
</svg>
