<svg width="159" height="158" viewBox="0 0 159 158" fill="none" xmlns="http://www.w3.org/2000/svg">
<g clip-path="url(#clip0_6_451)">
<path fill-rule="evenodd" clip-rule="evenodd" d="M138.907 98.9906V138.282H99.375L79.5 158L76.6243 155.131C70.9821 149.503 65.3036 143.874 59.6614 138.282H20.0934V98.9543C14.3784 93.253 8.62706 87.5881 2.91209 81.8869L0 78.9818L20.0934 59.0094V19.7182H59.625L79.5 0L99.375 19.7182H138.907V59.0094L159 78.9818L138.907 98.9906Z" fill="black"/>
<path d="M152.157 80.0712L127.222 104.837V107.815L134.83 100.261V134.178H133.337H100.685L108.33 126.589H105.345L79.5365 152.226C70.9094 143.656 62.2459 135.05 53.6189 126.48H50.634L58.3874 134.178H54.7837H24.2068V100.261L31.9238 107.924V104.946C23.2239 96.3033 14.5241 87.6607 5.82422 79.0181L31.8146 53.1992V50.2215L24.2068 57.7384V54.1797V23.8216H58.351L50.7068 31.4111H53.6917L79.5 5.7738L105.418 31.5201H108.403L100.649 23.8216H104.253H134.793V57.7384L127.076 50.0763V53.054L153.176 78.9818L152.157 80.0712ZM124.237 107.778L108.293 123.647H111.278L124.237 110.756V107.778ZM50.5976 123.538L34.8723 107.924V110.901L47.6127 123.538H50.5976ZM34.7631 50.2215L50.7068 34.3525H47.7219L34.7631 47.2438V50.2215ZM108.403 34.4978L124.128 50.1126V47.1349L111.387 34.4978H108.403ZM125.766 126.625L112.516 126.589L107.893 131.201H131.845V107.379L127.222 111.954L127.258 126.625H125.766ZM101.122 126.589L57.8414 126.516L79.5365 148.086L101.122 126.589ZM46.375 126.48L31.9602 126.444L31.9238 112.1L27.1917 107.379V131.201H51.1436L46.375 126.48ZM31.8874 100.734L31.8146 57.339L10.0103 78.9818L31.8874 100.734ZM31.7782 46.0091L31.7418 31.3385L46.4842 31.3748L51.1072 26.763H27.1917V50.5846L31.7782 46.0091ZM57.9142 31.4111L101.195 31.5201L79.5 9.94985L57.9142 31.4111ZM112.625 31.5201L127.04 31.5564L127.076 45.9002L131.808 50.621V26.7993H107.857L112.625 31.5201ZM127.113 57.2663L127.185 100.661L148.99 79.0181L127.113 57.2663ZM34.9087 123.502H43.3902L34.9087 115.041V123.502ZM54.8201 123.538L104.071 123.647L124.237 103.602L124.128 54.2886L104.18 34.4615L54.9293 34.3525L34.7631 54.3612L34.8723 103.675L54.8201 123.538ZM115.501 123.647H124.31V114.896L115.501 123.647ZM124.128 42.9225V34.4978H115.646L124.128 42.9225ZM43.5358 34.3525H34.7267L34.7631 43.1041L43.5358 34.3525Z" fill="#AA875A"/>
<path d="M101.341 87.806V94.7782H110.259L113.79 107.234H107.893L103.416 102.84H49.3235V94.7782H53.6552V87.806H62.1367V94.7782H92.932V87.806H101.341Z" fill="#AA875A"/>
<path d="M53.6552 56.5037H49.3235V48.4421H64.4299L77.5707 68.6324L90.5659 48.4421H105.672V56.5037H101.341C101.341 76.5125 101.341 72.1549 101.341 77.6019H92.8956V59.8083L80.9924 77.6019H74.0398L62.1367 59.8083V77.6019H53.6552V56.5037Z" fill="#AA875A"/>
<path fill-rule="evenodd" clip-rule="evenodd" d="M44.4458 85.4456V84.4652H44.9554V80.9427H44.4458V79.9623H46.3387L47.7947 84.102L49.2507 79.9623H51.1436V80.9427H50.634V84.4652H51.1436V85.4456H49.1415V84.4652H49.6512V81.3422L48.2315 85.4456H47.3943L45.9746 81.3422V84.4652H46.4843V85.4456H44.4458ZM54.2013 83.0852H55.3661L54.7837 81.4511L54.2013 83.0852ZM51.9808 85.4456V84.4652H52.4904L53.9465 80.9427H53.4369V79.9623H55.1477L57.0406 84.4652H57.5502V85.4456H55.4025V84.4652H55.9121L55.7301 84.0294H53.8009L53.6189 84.4652H54.1285V85.4456H51.9808ZM59.8799 84.4652H62.3187L61.0811 81.4874L59.8799 84.4652ZM61.5179 79.9986L63.3744 84.4652H64.1024V85.4456H63.1924H59.0062H58.0962V84.4652H58.8242L60.2803 80.9427H59.7707V79.9623H61.5179V79.9986ZM66.8689 83.0852H68.0337L67.4513 81.4511L66.8689 83.0852ZM64.6848 85.4456V84.4652H65.1944L66.6505 80.9427H66.1409V79.9623H67.8517L69.7446 84.4652H70.2542V85.4456H68.1065V84.4652H68.6161L68.4341 84.0294H66.5049L66.3229 84.4652H66.8325V85.4456H64.6848ZM71.055 85.4456V84.4652H71.5646V80.9427H71.055V79.9623H72.9479L74.4039 84.102L75.8599 79.9623H77.7528V80.9427H77.2432V84.4652H77.7528V85.4456H75.7143V84.4652H76.224V81.3422L74.8043 85.4456H73.9671L72.5475 81.3422V84.4652H73.0571V85.4456H71.055ZM81.6477 80.9427H81.1381V79.9623H83.1766V80.9427H82.667V84.4652H84.4506V80.9427H83.941V79.9623H85.9795V80.9427H85.4698V84.4652H86.2707V85.4456H85.3606H84.1958H81.1381V84.4652H81.6477V80.9427ZM88.9643 84.4652H89.474C89.838 84.4652 90.0928 84.3925 90.2384 84.3199C90.384 84.211 90.4932 84.0294 90.4932 83.8115C90.4932 83.5573 90.4204 83.3757 90.2384 83.2668C90.0564 83.1579 89.8016 83.0852 89.474 83.0852H89.0007V84.4652H88.9643ZM88.9643 82.1048H89.292C89.5832 82.1048 89.838 82.0685 89.9472 81.9595C90.0928 81.8869 90.1656 81.7416 90.1656 81.5238C90.1656 81.1606 89.9108 80.9791 89.3648 80.9791H88.9643V82.1048ZM87.4355 85.4456V84.4652H87.9451V80.9427H87.4355V79.9623H89.0735C89.474 79.9623 89.8016 79.9986 90.02 80.0349C90.2384 80.0712 90.4204 80.1438 90.6024 80.2528C90.7844 80.3617 90.93 80.5433 91.0392 80.7612C91.1484 80.9791 91.1848 81.1969 91.1848 81.4148C91.1848 81.669 91.1484 81.8869 91.0392 82.0321C90.93 82.1774 90.7844 82.3227 90.566 82.4316C90.748 82.5042 90.8936 82.5768 91.0028 82.6495C91.112 82.7221 91.1848 82.7947 91.2576 82.9037C91.4396 83.1216 91.5124 83.4121 91.5124 83.7752C91.5124 84.0657 91.4396 84.3199 91.3304 84.5741C91.1848 84.8283 91.0028 85.0098 90.7844 85.1188C90.4568 85.3004 90.02 85.4093 89.4376 85.4093H87.4355V85.4456ZM92.5317 85.4456V84.4652H93.0413V80.9427H92.5317V79.9623H95.9898V81.4511H94.9341V80.9427H94.0605V82.2137H95.5529V83.1942H94.0605V84.4652H94.9341V83.9568H95.9898V85.4456H92.5317ZM101.268 79.9986V81.4874H100.212V80.9791H99.7027V84.5015H100.212V85.4819H98.1738V84.5015H98.6834V80.9791H98.1738V81.4874H97.1182V79.9986H101.268ZM104.944 79.8896C105.308 79.8896 105.672 79.9623 106.036 80.1075C106.4 80.2528 106.692 80.4707 106.946 80.7249C107.201 80.9791 107.383 81.2696 107.529 81.6327C107.675 81.9958 107.747 82.359 107.747 82.7221C107.747 83.2305 107.638 83.7389 107.383 84.1383C107.128 84.5741 106.801 84.9009 106.364 85.1551C105.927 85.4093 105.454 85.5182 104.944 85.5182C104.544 85.5182 104.18 85.4456 103.816 85.3004C103.452 85.1551 103.161 84.9735 102.906 84.7193C102.651 84.4651 102.433 84.1746 102.287 83.8115C102.142 83.4484 102.069 83.0852 102.069 82.7221C102.069 82.3227 102.142 81.9595 102.287 81.5964C102.433 81.2332 102.651 80.9427 102.906 80.6885C103.161 80.4343 103.452 80.2528 103.816 80.1075C104.18 79.9623 104.544 79.8896 104.944 79.8896ZM104.908 80.8701C104.398 80.8701 103.998 81.0517 103.634 81.4148C103.27 81.7779 103.124 82.2137 103.124 82.7221C103.124 82.9763 103.161 83.2305 103.27 83.4484C103.379 83.6663 103.488 83.8841 103.67 84.0294C103.852 84.211 104.034 84.3199 104.253 84.4288C104.471 84.5378 104.726 84.5741 104.981 84.5741C105.49 84.5741 105.927 84.3925 106.255 84.0657C106.582 83.7026 106.764 83.2668 106.764 82.7584C106.764 82.2137 106.582 81.7779 106.255 81.4148C105.854 81.0517 105.418 80.8701 104.908 80.8701ZM111.824 80.9427H111.642V79.9623H113.535V80.9427H113.025L111.497 82.6495L113.062 84.4652H113.571V85.4456H111.642V84.4652H111.824L110.441 82.8674V84.4652H110.951V85.4456H108.912V84.4652H109.422V80.9427H108.912V79.9623H110.951V80.9427H110.441V82.5042L111.824 80.9427Z" fill="white"/>
<path d="M97.8461 89.8759V98.0827H106.109L110.477 104.074L109.312 104.91L105.381 99.4989H58.4238H56.9677H52.636V98.0827H56.9677H57.0041V89.8759H58.4238V98.0827H96.4265V89.8759H97.8461Z" fill="black"/>
<path d="M70.9459 40.5258L73.6031 41.0342L77.3525 38.1292H78.6265L82.3758 41.0342L85.0331 40.5258L86.2707 41.5426V47.6433L86.1979 48.0064L84.9239 51.4925L84.4143 52.0735L78.4445 55.0149H77.5345L71.5647 52.0735C71.4919 52.0372 71.4191 52.0009 71.3463 51.9283C71.2007 51.783 71.0915 51.6378 71.0551 51.4562L69.8174 48.0064L69.7446 47.6433V41.5426L70.9459 40.5258ZM75.6052 42.1236L77.6801 43.5762L80.3009 42.051L78.0077 40.2716L75.6052 42.1236ZM76.0784 44.9561L73.4575 43.1041L71.7831 42.7773V47.4617L72.4019 49.1321L76.0784 44.9561ZM82.485 43.1404L78.2989 45.6097L73.6759 50.8389L77.9713 52.9451L83.1038 50.4031L84.1595 47.4617V42.7773L82.485 43.1404Z" fill="#AA875A"/>
<path fill-rule="evenodd" clip-rule="evenodd" d="M96.7541 51.7831H98.1738H102.542V53.1993H98.1738V75.4958H96.7541V53.1993H93.7328L77.6071 76.1131L61.4451 53.1993H58.4238V75.4958H57.0041V53.1993H52.636V51.7831H57.0041H58.4238H62.2095L77.6071 73.6438L93.0048 51.7831H96.7541Z" fill="black"/>
</g>
<defs>
<clipPath id="clip0_6_451">
<rect width="159" height="158" fill="white"/>
</clipPath>
</defs>
</svg>
