<svg width="37" height="37" viewBox="0 0 37 37" fill="none" xmlns="http://www.w3.org/2000/svg">
<g clip-path="url(#clip0_186_96)">
<path d="M18.5 37C28.7173 37 37 28.7173 37 18.5C37 8.28273 28.7173 0 18.5 0C8.28273 0 0 8.28273 0 18.5C0 28.7173 8.28273 37 18.5 37Z" fill="white"/>
<path d="M24.2436 17.199L16.4691 11.868C16.1201 11.6141 15.7393 11.4872 15.4537 11.4872C14.8508 11.4872 14.5017 11.9632 14.5017 12.7247V24.2436C14.5017 25.0369 14.8508 25.4812 15.4219 25.4812C15.7393 25.4812 16.0883 25.3542 16.4374 25.1004L24.2118 19.7693C24.7195 19.4203 25.0051 18.976 25.0051 18.4683C25.0051 17.9606 24.7513 17.5481 24.2436 17.199Z" fill="#D6001D"/>
</g>
<defs>
<clipPath id="clip0_186_96">
<rect width="37" height="37" fill="white"/>
</clipPath>
</defs>
</svg>
